<svg xmlns="http://www.w3.org/2000/svg" role="img" viewBox="-8.44 -8.44 438.62 83.62"><g clip-path="url(#clip0_8748_16594)"><path fill="#AE28ED" d="M84.254 53.526H172.25400000000002V58.550000000000004H84.254zM334 53.526H422V58.550000000000004H334z"/><path fill="#fff" d="M100.282 25.6462C101.901 25.6783 103.505 25.3249 104.961 24.615 106.417 23.9052 107.683 22.8594 108.656 21.5638L113.157 26.1695C109.598 30.1473 105.515 32.1361 100.7 32.1361 98.5274 32.219 96.3601 31.8632 94.3278 31.0898 92.2955 30.3165 90.4399 29.1415 88.8718 27.635 87.3448 26.1641 86.1454 24.3876 85.3517 22.4215 84.5581 20.4554 84.1881 18.344 84.266 16.2253 84.2064 14.0838 84.5946 11.9535 85.4057 9.97077 86.2169 7.988 87.4331 6.19645 88.9765 4.71082 90.6366 3.14452 92.5968 1.93082 94.7389 1.14297 96.8809.355124 99.1604.0094645 101.44.126855 103.719.244246 105.951.822252 108.001 1.82599 110.051 2.82973 111.876 4.23838 113.366 5.96694L109.074 10.8867C108.129 9.61373 106.897 8.58093 105.479 7.87177 104.061 7.1626 102.495 6.79695 100.91 6.80435 98.4379 6.75679 96.0413 7.65549 94.2103 9.31659 93.2601 10.1894 92.5142 11.2611 92.0257 12.4553 91.5371 13.6495 91.3181 14.9367 91.3841 16.2253 91.3179 17.511 91.5159 18.7967 91.966 20.003 92.4161 21.2092 93.1087 22.3104 94.001 23.2386 95.7232 24.7926 97.9618 25.6507 100.282 25.6462V25.6462zM118.6 31.7174V.628418H125.508V25.5415H138.802V31.7174H118.6zM169.158 27.4257C166.012 30.3845 161.857 32.032 157.539 32.032 153.22 32.032 149.065 30.3845 145.919 27.4257 144.386 25.9548 143.175 24.1808 142.364 22.2165 141.553 20.2522 141.16 18.1405 141.209 16.016 141.15 13.8901 141.539 11.7756 142.35 9.80986 143.162 7.84412 144.378 6.07116 145.919 4.60622 149.065 1.64742 153.22 0 157.539 0 161.857 0 166.012 1.64742 169.158 4.60622 170.692 6.07712 171.902 7.85116 172.713 9.81548 173.524 11.7798 173.918 13.8914 173.868 16.016 173.927 18.1418 173.539 20.2564 172.727 22.2221 171.915 24.1878 170.699 25.9608 169.158 27.4257V27.4257zM166.75 16.016C166.77 13.3856 165.798 10.8444 164.029 8.89796 163.195 7.97562 162.178 7.23831 161.042 6.73368 159.906 6.22904 158.677 5.9683 157.434 5.9683 156.191 5.9683 154.962 6.22904 153.826 6.73368 152.69 7.23831 151.672 7.97562 150.839 8.89796 149.05 10.832 148.075 13.3815 148.118 16.016 148.098 18.6463 149.07 21.1876 150.839 23.134 151.672 24.0563 152.69 24.7937 153.826 25.2983 154.962 25.8029 156.191 26.0637 157.434 26.0637 158.677 26.0637 159.906 25.8029 161.042 25.2983 162.178 24.7937 163.195 24.0563 164.029 23.134 164.935 22.1898 165.643 21.0734 166.111 19.8508 166.578 18.6281 166.796 17.3241 166.75 16.016V16.016zM188 23.7618C188.552 24.4777 189.268 25.0508 190.088 25.4333 190.908 25.8157 191.807 25.9963 192.71 25.96 193.601 26.0073 194.488 25.8309 195.293 25.4469 196.097 25.0629 196.793 24.4836 197.316 23.7618 198.518 22.052 199.108 19.9867 198.991 17.8999V.73291H205.9V18.1092C205.9 22.6103 204.643 26.0647 202.131 28.4722 200.866 29.6851 199.373 30.6337 197.737 31.2628 196.102 31.8918 194.357 32.1886 192.606 32.1359 190.838 32.1887 189.078 31.8922 187.426 31.2636 185.773 30.6349 184.261 29.6863 182.975 28.4722 180.463 26.0647 179.207 22.6103 179.207 18.1092V.73291H186.116V17.8999C186.114 20.0031 186.773 22.0538 188 23.7618V23.7618zM236.885 4.71081C239.816 7.4324 241.386 11.2008 241.386 16.0159 241.386 20.831 239.92 24.7041 237.094 27.5303 234.268 30.3566 229.767 31.7174 223.905 31.7174H213.123V.628418H224.114C229.662.628418 233.954 1.98922 236.885 4.71081zM231.86 23.2386C233.535 21.6684 234.372 19.2609 234.372 16.2252 234.372 13.1896 233.535 10.7821 231.86 9.21191 230.185 7.64176 227.568 6.69967 224.009 6.69967H220.136V25.6462H224.533C227.19 25.7877 229.805 24.9288 231.86 23.2386V23.2386zM280.849.628418H287.758V31.7174H280.849L265.985 12.2475V31.7174H259.076V.628418H265.566L280.849 20.6217V.628418zM317.589 31.7174L314.659 25.0181H301.574L298.643 31.7174H291.211L304.61.628418H311.309L324.707 31.7174H317.589zM308.273 9.94464L304.4 18.9468H312.146L308.273 9.94464zM339.573 6.69948V31.8219H332.664V6.69948H323.871V.73291H348.47V6.69948H339.573zM353.389.628418H360.297V31.7174H353.389V.628418zM379.453 20.4123L387.408.628418H394.945L382.488 31.7174H376.626L364.17.628418H371.707L379.453 20.4123zM421.401.628418V6.80434H405.909V13.1896H419.831V19.1562H405.909V25.6461H421.924V31.8221H399V.733095H421.401V.628418zM9.52558 44.624H0V66.9934H22.2961V57.3736H9.52558V44.624zM57.4678 44.7287V57.3736H44.6973V66.9934H66.9934V44.624H57.3631L57.4678 44.7287zM0 22.3694H9.63026L9.52558 22.2647V9.61979H22.2961V0H0V22.3694zM44.6973 0V9.61979H57.4678V22.3694H66.9934V0H44.6973z"/><path fill="#fff" d="M43.4396 22.3694L30.6691 9.61979H44.6957V0H22.2949V9.61979L35.0655 22.3694H43.4396zM31.9252 44.624H23.551L34.1234 55.1859 36.2169 57.3736H22.2949V66.9934H44.6957V57.269L38.3105 50.9884 31.9252 44.624zM57.4678 22.3696V36.2707L55.2696 34.0725 44.6973 23.5106V31.9789L50.9779 38.2596 57.3631 44.6344H66.9934V22.3696H57.4678zM22.2961 35.0146L9.63026 22.3696H0V44.6239H9.52558V30.7228L22.2961 43.4829V35.0146z" opacity=".65"/><path fill="#fff" d="M181.721 64.6343H188.027C193.956 64.6343 198.151 61.0418 198.151 55.9922C198.151 50.9426 193.956 47.3752 188.027 47.3752H181.721V64.6343ZM186.017 60.7403V51.2692H188.68C191.644 51.2692 193.73 53.2287 193.73 55.9922C193.73 58.7556 191.644 60.7403 188.68 60.7403H186.017ZM215.319 51.2189V47.3752H201.728V64.6343H215.319V60.7905H206.024V57.7507H214.465V53.907H206.024V51.2189H215.319ZM231.542 47.3752L227.145 58.5044L222.724 47.3752H217.9L224.709 64.6343H229.557L236.365 47.3752H231.542ZM246.315 64.9357C250.586 64.9357 253.224 62.7752 253.224 59.3083C253.224 56.0675 250.737 54.9621 246.868 54.1331C244.306 53.5804 243.477 53.2287 243.477 52.1736C243.477 51.3194 244.255 50.6662 245.637 50.6662C247.245 50.6662 248.978 51.2943 250.561 52.5002L252.747 49.4352C250.913 47.9279 248.652 47.0737 245.738 47.0737C241.819 47.0737 239.156 49.2845 239.156 52.6006C239.156 56.0675 241.894 57.0724 245.587 57.9015C248.099 58.5044 248.903 58.7305 248.903 59.7605C248.903 60.6901 248.074 61.3432 246.466 61.3432C244.356 61.3432 242.472 60.5393 240.789 59.1576L238.352 62.0467C240.462 63.9308 243.251 64.9357 246.315 64.9357ZM260.837 64.6343H265.133V51.2189H270.384V47.3752H255.612V51.2189H260.837V64.6343ZM286.041 64.6343H290.865L284.031 47.3752H279.208L272.375 64.6343H277.198L278.253 61.9964H284.986L286.041 64.6343ZM279.535 58.7556L281.62 53.4548L283.705 58.7556H279.535ZM298.078 64.6343H302.374V51.2189H307.625V47.3752H292.853V51.2189H298.078V64.6343ZM317.755 64.9357C322.026 64.9357 324.664 62.7752 324.664 59.3083C324.664 56.0675 322.177 54.9621 318.308 54.1331C315.746 53.5804 314.917 53.2287 314.917 52.1736C314.917 51.3194 315.695 50.6662 317.077 50.6662C318.685 50.6662 320.418 51.2943 322.001 52.5002L324.187 49.4352C322.353 47.9279 320.092 47.0737 317.178 47.0737C313.258 47.0737 310.595 49.2845 310.595 52.6006C310.595 56.0675 313.334 57.0724 317.027 57.9015C319.539 58.5044 320.343 58.7305 320.343 59.7605C320.343 60.6901 319.514 61.3432 317.906 61.3432C315.796 61.3432 313.912 60.5393 312.228 59.1576L309.792 62.0467C311.902 63.9308 314.69 64.9357 317.755 64.9357Z"/></g><defs><clipPath id="clip0_8748_16594"><path fill="#fff" d="M0 0H422.161V66.993H0z"/></clipPath></defs></svg>