<svg width="293" height="180" viewBox="0 0 293 180" fill="none" xmlns="http://www.w3.org/2000/svg">
<path d="M167.628 25.9441H159.028V34.5287H167.628V25.9441Z" fill="#09BAC8"/>
<path d="M146.29 98.95H129.077V107.535H146.29V98.95Z" fill="#09BAC8"/>
<path d="M223.742 98.95H206.529V107.535H223.742V98.95Z" fill="#09BAC8"/>
<path d="M283.937 154.612V103.074H275.367V154.612H266.797V68.7212H249.54V0H43.0549V68.7212H25.8125V154.612H17.2424V103.074H8.57004V154.612H0V171.445H17.2132V180H43.0257V171.445H51.5957V180H77.4082V171.445H215.085V180H240.897V171.445H249.467V180H275.28V171.445H292.493V154.612H283.937ZM193.44 8.76017H236.466V25.9441H223.728V60.312H206.529V25.9441H193.455V8.76017H193.44ZM55.7784 43.128V8.76017H90.2048V21.469H72.9916V30.0244H90.2048V43.1134H72.9916V60.2974H55.7784V43.128ZM94.6945 98.9503V107.506H68.8528V124.69H94.6653V150.458H43.0403V81.7663H94.6653L94.6945 98.9503ZM98.8187 60.312V8.77478H116.032V43.1427H133.245V60.3266H98.804H98.8187V60.312ZM172.103 98.9503V150.488H146.29V124.719H129.077V150.488H103.265V90.3656H111.835V81.8102H163.46V90.3656H172.03L172.103 98.9503ZM167.628 60.312V43.128H159.058V60.312H141.83V17.3594H150.4V8.80404H176.212V17.3594H184.782V60.312H167.628ZM249.54 98.9503V124.719H240.97V133.274H249.54V150.458H223.728V133.304H215.158V124.748H206.588V150.517H180.76V81.781H249.555V98.9503H249.54Z" fill="#09BAC8"/>
</svg>
